PathFileType	4	(X/Y/Z)	G:\TennisProject\Miami_Dimitrov_Sinner_masked_Sports2D\Miami_Dimitrov_Sinner_masked_Sports2D_px_person00.trc
DataRate	CameraRate	NumFrames	NumMarkers	Units	OrigDataRate	OrigDataStartFrame	OrigNumFrames
25	25	8	22	m	25	374	499
Frame#	Time	Hip			RHip			RKnee			RAnkle			RBigToe			RSmallToe			RHeel			LHip			LKnee			LAnkle			LBigToe			LSmallToe			LHeel			Neck			Head			Nose			RShoulder			RElbow			RWrist			LShoulder			LElbow			LWrist		
		X1	Y1	Z1	X2	Y2	Z2	X3	Y3	Z3	X4	Y4	Z4	X5	Y5	Z5	X6	Y6	Z6	X7	Y7	Z7	X8	Y8	Z8	X9	Y9	Z9	X10	Y10	Z10	X11	Y11	Z11	X12	Y12	Z12	X13	Y13	Z13	X14	Y14	Z14	X15	Y15	Z15	X16	Y16	Z16	X17	Y17	Z17	X18	Y18	Z18	X19	Y19	Z19	X20	Y20	Z20	X21	Y21	Z21	X22	Y22	Z22
374	14.96	865.2326397307036	229.40462561131753	0.0	857.3133755270858	229.76960565475838	0.0	847.356199299889	251.6630455556762	0.0	837.4053039884366	274.7996020550511	0.0	834.2661807990701	281.9405527598866	0.0	831.6455803446729	281.2459107502749	0.0	837.4791751339988	278.6975056626883	0.0	873.2522138428516	229.77707315182022	0.0	883.5955057000534	252.0762728470932	0.0	892.5410945099313	275.30780583461467	0.0	896.4716687477419	283.6597895320957	0.0	899.7177724797026	282.76482487782886	0.0	892.8797108047778	279.600274212927	0.0	864.5373609334065	197.69168758046115	0.0	863.1336373370821	180.19377687038414	0.0	863.7095261759582	189.70442517520655	0.0	853.5915532230282	201.86757445849454	0.0	845.4529995821919	215.83644012337334	0.0	853.595699818318	224.59579751587202	0.0	875.8944576463787	201.29534749807888	0.0	881.2528394333885	217.4185901725127	0.0	876.1528313644399	227.58236826464528	0.0
375	15.0	867.6703389551383	230.67478290312536	0.0	859.7004717252589	230.91038518709638	0.0	849.9076981456125	252.42775642675713	0.0	841.0731977053921	274.8499257086751	0.0	838.5639283400116	282.1018402390705	0.0	835.7709341954828	281.4799662948731	0.0	841.0657704109333	278.9204592902805	0.0	875.5471737080939	231.00604798573448	0.0	886.8367674640175	252.69146894191454	0.0	897.9282796026489	274.81955265979894	0.0	902.8271937328174	283.12674932068586	0.0	905.6037683864852	281.6663116055778	0.0	898.5739869261538	278.7196732084173	0.0	867.2185881413523	199.48620145171054	0.0	865.8858146362049	182.52195778633157	0.0	866.4928037876668	191.66494261806093	0.0	856.3827430157446	203.4847304907489	0.0	848.7396115700981	217.50501034489292	0.0	856.7232488697149	226.81228370828666	0.0	878.3741173417213	203.04969965792202	0.0	884.0735392776563	219.44637942791337	0.0	877.9649007116077	229.2527474036607	0.0
376	15.040000000000001	869.9692574126161	232.9665235534655	0.0	861.8883900379337	233.1576963309234	0.0	852.411424047801	253.81430825702006	0.0	844.7617093176541	275.12989858488834	0.0	842.6559258464526	282.502721456119	0.0	839.7429726860317	281.68981978180125	0.0	844.7632384375138	279.2385399447405	0.0	877.9471884425632	233.32394354187898	0.0	890.0477856232752	254.64601661919377	0.0	903.306373843747	275.57121032210745	0.0	907.7578852512881	283.8651641688281	0.0	910.5610269027457	282.0169132825916	0.0	904.2939930520812	278.8238487811867	0.0	869.8551353203242	202.85490154257263	0.0	868.7658832687948	186.48909770023326	0.0	869.3462373542885	195.2508501302837	0.0	859.0284004414368	206.37921328819704	0.0	852.0001899381075	220.5657131767136	0.0	859.6609640892391	230.22411621217515	0.0	880.7135584910778	205.82019408596182	0.0	886.8413781421525	222.53460638006544	0.0	879.8200243693219	231.65722013958668	0.0
377	15.08	872.2640545013276	235.8140539951082	0.0	864.3364374279993	236.16676786517155	0.0	854.8073431999364	255.3404102558429	0.0	849.0392245299272	274.9891502585423	0.0	846.5861666307965	282.7829816418686	0.0	843.7581334387222	281.5875029432435	0.0	849.6122104064303	278.86780749388447	0.0	880.0769487028019	235.99071764769388	0.0	892.6762834467949	257.0064981641394	0.0	907.4833290820295	276.3140710423812	0.0	911.433500242065	284.997877847716	0.0	914.4919676748109	283.14016947748974	0.0	908.4986836534193	279.3357565784151	0.0	872.209153313186	207.27828562918	0.0	871.3537168723693	190.01911345390812	0.0	872.0327439805509	199.95501055093547	0.0	861.3659183919393	210.1748093100494	0.0	855.3261611268202	224.89147356920236	0.0	862.8441111635472	235.19095825629955	0.0	882.8495208013901	209.55418520724908	0.0	888.9632994124822	226.2334305680195	0.0	882.2532034016805	235.09118347525845	0.0
378	15.120000000000001	874.4146529562746	238.52939191518254	0.0	866.9807086122116	239.27848287973148	0.0	856.5267521748553	256.89555126114016	0.0	854.1695380877918	275.19224867378193	0.0	850.4496858912793	282.97419350812606	0.0	848.036187382361	281.53164651851137	0.0	856.0279669536377	278.7737290665935	0.0	881.8826105386106	238.5291412119666	0.0	894.4951688537215	258.81229594876083	0.0	910.1278373697712	276.8693713928262	0.0	913.7368678510268	285.6788896418083	0.0	916.8953123365906	283.80102971610216	0.0	911.1150281812988	279.9001906479774	0.0	873.7703824268907	211.70254688810363	0.0	873.1958666924784	194.11114335795014	0.0	873.9314751436353	204.8997416055683	0.0	863.1000296929737	214.23434017289938	0.0	858.0669954432332	229.33584314717197	0.0	865.5049055524114	240.5796053348129	0.0	884.3328532952703	213.75080372212886	0.0	889.7730692291623	229.94351642309766	0.0	884.028321244286	238.91613763938238	0.0
379	15.16	875.8349332218908	240.4438402317814	0.0	868.8085995967957	241.74477358524103	0.0	856.8959698521521	258.4251203147284	0.0	859.6000440154468	276.53434073632457	0.0	854.0617850878124	283.2041463592448	0.0	852.4460504361849	281.8753101328916	0.0	862.8658118289753	279.9779980952969	0.0	883.2842116456607	240.8353454457052	0.0	895.6778654740117	259.9793311726737	0.0	911.8410423454827	277.6661827687085	0.0	914.7341396193375	285.83170343982084	0.0	917.6984793222985	283.6654162292358	0.0	913.0814298370346	280.39994918784464	0.0	873.6826683264503	214.78305459849716	0.0	873.5085537345557	199.44782151472586	0.0	873.9824471558046	208.50414001956148	0.0	863.404877327315	217.3741277150473	0.0	859.2634068999123	231.67182409156715	0.0	865.5196320936473	242.91830594284113	0.0	884.2508087274737	217.34880175961914	0.0	888.6610649762555	233.1120921772757	0.0	881.8829646211269	241.91914493744972	0.0
380	15.200000000000001	875.7553210473058	241.07176892538587	0.0	868.6780778304118	242.66000029569443	0.0	855.6847791261487	259.64274051483494	0.0	863.9287267994827	278.3185141173346	0.0	856.7445713742261	283.70719311519065	0.0	856.1608334458327	282.42942444071116	0.0	867.9658679180664	281.49948391174513	0.0	883.494777260073	242.07835121394803	0.0	895.9070321458577	260.9193308778063	0.0	912.996820826125	278.65092625298126	0.0	915.2838861256014	285.8372414993375	0.0	918.0085685916431	283.4135150019023	0.0	914.7940680654992	280.74598366258385	0.0	871.3197554542344	215.77591766790675	0.0	871.4313697283554	203.39715430511643	0.0	871.5526192800287	209.67818890941402	0.0	861.511064074286	218.38786772082818	0.0	858.384171006361	230.8270203805818	0.0	861.7181936658228	240.960513344827	0.0	881.805312474338	219.21316389763285	0.0	885.3573471618204	235.35735120783528	0.0	874.7373603982968	243.29050876006443	0.0
381	15.24	873.7991599470387	240.59961331031502	0.0	866.6057143857522	242.08211109953373	0.0	853.619195655064	260.32286519669924	0.0	866.0233239247799	279.4912717648691	0.0	857.9096409590344	284.6329903733084	0.0	858.1186225780334	282.9425139782372	0.0	870.1275132845018	282.04793632654264	0.0	881.6893306759092	241.62970375581853	0.0	894.1831171872639	262.0829394201011	0.0	913.3592929229711	279.2732998849118	0.0	915.8935781834836	285.7735274632471	0.0	918.7831808374048	283.4750840450848	0.0	915.8720598990083	280.74745409334423	0.0	866.9823593680242	214.7896370227001	0.0	866.915518326825	203.42972458093195	0.0	867.0910017516101	208.585524891896	0.0	857.709754955958	217.2063005002054	0.0	855.774325952299	228.32003218040802	0.0	855.606496203297	237.81196318211022	0.0	877.1943714107713	218.75442520903044	0.0	880.3752239201306	235.88467124104267	0.0	866.4890546026788	242.68300369158678	0.0
